HIERARCHY
ROOT root
{
	OFFSET	0	13.1	24.9
	CHANNELS 6  Xposition Yposition Zposition Xrotation Yrotation Zrotation
	JOINT spine_1
	{
		OFFSET	0	9.99999	0
		CHANNELS 3  Xrotation Yrotation Zrotation
		JOINT spine_2
		{
			OFFSET	0	112	-10
			CHANNELS 3  Xrotation Yrotation Zrotation
			JOINT spine_3
			{
				OFFSET	0	206.5	19.3
				CHANNELS 3  Xrotation Yrotation Zrotation
				JOINT spine_4
				{
					OFFSET	0	110.4	14.6
					CHANNELS 3  Xrotation Yrotation Zrotation
					JOINT neck_1
					{
						OFFSET	0	71.8	-50.3
						CHANNELS 3  Xrotation Yrotation Zrotation
						JOINT neck_2
						{
							OFFSET	0	86.2	-25.8
							CHANNELS 3  Xrotation Yrotation Zrotation
							JOINT head_ee
							{
								OFFSET	0	179.8	-8.7
								CHANNELS 3  Xrotation Yrotation Zrotation
								End Site
								{
									OFFSET	1	0	0
								}
							}
						}
					}
					JOINT left_clavicle
					{
						OFFSET	-43.2	22.4	-70.8
						CHANNELS 3  Xrotation Yrotation Zrotation
						JOINT left_shoulder
						{
							OFFSET	-93.9	-5.79999	48.7
							CHANNELS 3  Xrotation Yrotation Zrotation
							JOINT left_elbow
							{
								OFFSET	-291.4	-30.8	15.2
								CHANNELS 3  Xrotation Yrotation Zrotation
								JOINT left_lowarm_twist
								{
									OFFSET	-110.7	-3.89999	13.6
									CHANNELS 3  Xrotation Yrotation Zrotation
									JOINT left_hand
									{
										OFFSET	-110.7	-3.89999	13.6
										CHANNELS 3  Xrotation Yrotation Zrotation
										JOINT left_ee
										{
											OFFSET	-80.8	-5.10001	12.1
											CHANNELS 3  Xrotation Yrotation Zrotation
											End Site
											{
												OFFSET	1	0	0
											}
										}
									}
								}
							}
						}
					}
					JOINT right_clavicle
					{
						OFFSET	43.2	22.4	-70.8
						CHANNELS 3  Xrotation Yrotation Zrotation
						JOINT right_shoulder
						{
							OFFSET	93.9	-5.79999	48.7
							CHANNELS 3  Xrotation Yrotation Zrotation
							JOINT right_elbow
							{
								OFFSET	291.4	-30.8	15.2
								CHANNELS 3  Xrotation Yrotation Zrotation
								JOINT right_lowarm_twist
								{
									OFFSET	110.7	-3.89999	13.6
									CHANNELS 3  Xrotation Yrotation Zrotation
									JOINT right_hand
									{
										OFFSET	110.7	-3.89999	13.6
										CHANNELS 3  Xrotation Yrotation Zrotation
										JOINT right_ee
										{
											OFFSET	80.8	-5.10001	12.1
											CHANNELS 3  Xrotation Yrotation Zrotation
											End Site
											{
												OFFSET	1	0	0
											}
										}
									}
								}
							}
						}
					}
				}
			}
		}
	}
	JOINT left_hip
	{
		OFFSET	-82.8	-127.5	0.300001
		CHANNELS 3  Xrotation Yrotation Zrotation
		JOINT left_knee
		{
			OFFSET	-28.2	-396.7	2.2
			CHANNELS 3  Xrotation Yrotation Zrotation
			JOINT left_ankle
			{
				OFFSET	-11.7	-411.3	35.4
				CHANNELS 3  Xrotation Yrotation Zrotation
				JOINT left_toes
				{
					OFFSET	0	-60	-88.6
					CHANNELS 3  Xrotation Yrotation Zrotation
					JOINT left_foot_ee
					{
						OFFSET	-22.5	-16.5	-42.2
						CHANNELS 3  Xrotation Yrotation Zrotation
						End Site
						{
							OFFSET	1	0	0
						}
					}
				}
			}
		}
	}
	JOINT right_hip
	{
		OFFSET	82.8	-127.5	0.300001
		CHANNELS 3  Xrotation Yrotation Zrotation
		JOINT right_knee
		{
			OFFSET	28.2	-396.7	2.2
			CHANNELS 3  Xrotation Yrotation Zrotation
			JOINT right_ankle
			{
				OFFSET	11.7	-411.3	35.4
				CHANNELS 3  Xrotation Yrotation Zrotation
				JOINT right_toes
				{
					OFFSET	0	-60	-88.6
					CHANNELS 3  Xrotation Yrotation Zrotation
					JOINT right_foot_ee
					{
						OFFSET	22.5	-16.5	-42.2
						CHANNELS 3  Xrotation Yrotation Zrotation
						End Site
						{
							OFFSET	1	0	0
						}
					}
				}
			}
		}
	}
}
MOTION
Frames: 12
Frame Time: 0.02
3400.69 715.719 -821.109 -21.4081 57.5787 13.3247 4.38039 0.45141 2.00056 4.38256 0.323222 2.02521 4.39249 0.0476084 2.05028 4.38681 0.370748 2.01706 -14.8235 10.7606 -0.99668 -15.2196 21.163 2.69711 -0.0 0.0 -0.0 0.581086 5.46857 1.70898 -38.5376 -28.8881 76.0124 0.674012 -18.4635 0.109551 4.36306 0.133163 -0.541259 -0.845851 13.4158 0.206354 -0.0 0.0 -0.0 10.5233 9.50399 -20.986 -11.7431 29.8214 -59.1322 1.21157 30.97 -0.335667 11.043 -0.256283 1.38519 -0.833834 -3.87134 3.87981 0.0 0.0 0.0 28.3594 0.00655613 -2.602 -0.014167 0.000582864 0.00209593 -2.56997 15.6143 0.381194 -0.921689 0.0 0.0 -0.0 0.0 -0.0 3.12077 -31.8356 10.5698 1.33868 0.057436 0.19739 20.2608 3.20007 2.80805 3.24722 -0.0 -0.0 0.0 0.0 0.0 
3378.88 710.1 -821.113 -21.24 56.4312 13.3596 4.29782 0.412644 2.10452 4.30024 0.277923 2.1265 4.30894 -0.0140781 2.14453 4.30267 0.32471 2.11987 -15.7397 11.496 0.615572 -16.2078 21.6686 4.65949 -0.0 0.0 -0.0 0.681479 5.52275 1.89752 -38.6399 -28.8372 75.1202 0.692111 -18.9244 0.115352 4.76949 0.14346 -0.592155 -0.703585 10.6696 -0.0783142 -0.0 0.0 -0.0 10.9364 9.59316 -21.8975 -12.2293 28.5911 -58.5228 1.20615 30.8567 -0.332882 11.0053 -0.255865 1.38039 -0.582458 -3.04553 2.57594 0.0 0.0 0.0 28.7585 -0.784938 -2.83383 -1.60763 0.0628479 0.238702 -1.64546 15.011 0.24329 -3.07535 0.0 0.0 -0.0 0.0 -0.0 2.98565 -31.0672 11.4936 1.59222 0.0688336 0.234623 20.4132 3.67888 2.83143 3.56547 -0.0 -0.0 0.0 0.0 0.0 
3355.12 709.615 -821.932 -20.3117 56.0295 12.8139 4.28404 0.478647 1.9588 4.2861 0.353059 1.98528 4.29697 0.0792095 2.01486 4.29153 0.396362 1.97709 -14.6682 12.0604 0.325304 -15.1278 22.8569 4.37145 -0.0 0.0 -0.0 0.828529 5.58415 2.17145 -38.6363 -28.898 74.6284 0.654266 -17.9578 0.10338 4.78731 0.143903 -0.594388 -0.624193 8.61501 -0.451084 -0.0 0.0 -0.0 11.2853 9.60994 -22.6725 -14.67 27.7946 -57.24 1.13812 29.4129 -0.298726 10.7894 -0.253411 1.35293 -0.116648 -1.97531 -0.0557571 0.0 0.0 0.0 28.5677 -0.735107 -2.75102 -6.15802 0.204119 0.922578 3.45535 17.8413 -0.508295 -3.70011 0.0 0.0 -0.0 0.0 -0.0 2.91554 -30.741 12.4446 0.998668 0.0424102 0.14738 20.4871 2.8463 2.83314 3.7139 -0.0 -0.0 0.0 0.0 0.0 
3330.65 710.068 -821.073 -19.6838 55.3367 11.8762 4.25474 0.266938 2.11081 4.25721 0.132112 2.12351 4.2605 -0.16002 2.12159 4.25426 0.176977 2.12024 -14.2057 13.1932 -1.33228 -14.772 25.987 3.12528 -0.0 0.0 -0.0 1.30836 6.30118 3.1097 -38.4969 -28.8036 73.6644 0.62577 -17.2229 0.0947677 4.69619 0.14163 -0.582971 -0.947797 6.62757 -3.41636 -0.0 0.0 -0.0 10.7547 9.91361 -21.494 -14.7421 27.5742 -58.6412 1.11008 28.8056 -0.285086 10.6783 -0.252107 1.33879 0.445636 2.43718 -1.96233 0.0 0.0 0.0 28.3305 -3.48293 -2.20673 -10.5708 0.288855 1.59427 8.71332 18.8572 -1.2667 -2.81962 0.0 0.0 -0.0 0.0 -0.0 4.34582 -26.5595 15.2537 -2.20443 -0.0844678 -0.32774 23.778 1.04611 3.21763 5.18624 -0.0 -0.0 0.0 0.0 0.0 
3306.53 710.134 -825.625 -17.2053 53.779 9.96239 4.07311 0.350115 1.94312 4.07518 0.225784 1.96145 4.08167 -0.0511265 1.97374 4.07633 0.261169 1.95705 -13.6585 13.9164 1.09746 -14.1751 25.8642 5.5202 -0.0 0.0 -0.0 1.25589 6.20561 3.00623 -36.5954 -28.6721 73.3154 0.600491 -16.5661 0.0874214 4.98518 0.148777 -0.619195 -0.636022 5.42327 -1.90216 -0.0 0.0 -0.0 11.1724 9.81801 -22.4208 -16.9785 26.8236 -57.663 1.10239 28.6377 -0.28139 10.2856 -0.247281 1.28887 0.865237 2.59591 -4.7192 0.0 0.0 0.0 27.1453 -0.488627 -2.71575 -13.2253 0.314826 2.00069 10.7796 21.0235 -1.56936 -2.8834 0.0 0.0 -0.0 0.0 -0.0 5.11966 -28.975 15.8219 -1.91715 -0.0741765 -0.284853 26.0926 -2.49966 3.46489 5.32598 -0.0 -0.0 0.0 0.0 0.0 
3283.63 711.594 -825.149 -15.8558 52.5586 8.46736 3.93268 0.426071 2.1287 3.93515 0.289785 2.15148 3.94465 -0.0195278 2.17082 3.93822 0.323477 2.14668 -13.196 15.0839 1.08808 -13.7718 28.0551 5.80077 -0.0 0.0 -0.0 1.49133 7.65031 3.55618 -34.6884 -28.2328 70.6214 0.503228 -13.9978 0.0617794 4.53767 0.137631 -0.563115 -0.626919 3.99445 -2.45982 -0.0 0.0 -0.0 11.1088 9.88952 -22.2792 -17.9811 26.1339 -57.9867 1.07274 27.9855 -0.267326 10.24 -0.246698 1.28307 1.35957 3.54644 -7.66832 0.0 0.0 0.0 27.0515 -1.87654 -1.83495 -17.9292 0.314539 2.72221 13.9377 24.6439 -2.04197 -2.13109 0.0 0.0 -0.0 0.0 -0.0 3.99427 -29.2424 16.0616 0.20873 0.00865128 0.030863 29.0643 -5.22732 3.78779 4.29887 -0.0 -0.0 0.0 0.0 0.0 
3264.86 714.29 -823.809 -15.1397 52.3423 7.66939 3.91721 0.453694 2.07267 3.91955 0.320915 2.09733 3.93 0.0184771 2.12165 3.9239 0.353245 2.09213 -12.8896 15.9672 0.145073 -13.5449 30.2923 5.14204 -0.0 0.0 -0.0 1.6248 8.63547 3.87404 -33.3784 -28.1134 68.6514 0.45325 -12.6548 0.0502589 4.09546 0.126187 -0.507788 -0.603345 3.02394 -2.72359 -0.0 0.0 -0.0 11.1735 9.93033 -22.423 -19.2001 24.6507 -57.9297 0.968421 25.6278 -0.220272 10.2853 -0.247277 1.28882 1.45764 3.6848 -8.27725 0.0 0.0 0.0 27.0313 -3.73653 -0.475832 -20.7723 0.285659 3.15744 16.8459 25.3222 -2.45109 -1.11181 0.0 0.0 -0.0 0.0 -0.0 2.94814 -27.1727 16.6156 -0.328334 -0.0133804 -0.0486096 30.6707 -7.63489 3.96082 3.37003 -0.0 -0.0 0.0 0.0 0.0 
3246.39 716.864 -824.283 -14.6484 50.9867 7.3626 3.9479 0.475694 1.96957 3.94999 0.349427 1.99583 3.96099 0.0622909 2.02522 3.95547 0.381291 1.99 -12.701 16.6949 1.11164 -13.369 31.0617 6.24465 -0.0 0.0 -0.0 1.6521 9.56498 3.99656 -31.9664 -28.3108 67.5171 0.407805 -11.4211 0.0407803 3.90307 0.121074 -0.483743 -0.63193 2.29301 -3.22952 -0.0 0.0 -0.0 11.2002 9.4359 -22.4828 -20.7391 24.8144 -57.5826 0.965854 25.5686 -0.219163 10.8618 -0.254245 1.36213 1.56143 4.2374 -8.75398 0.0 0.0 0.0 26.7548 -5.93363 0.104812 -22.8596 0.250727 3.47581 16.0251 28.0255 -2.37753 -1.30148 0.0 0.0 -0.0 0.0 -0.0 3.20937 -28.5185 16.7992 1.35292 0.0580717 0.199483 30.8501 -8.77274 3.98275 2.51347 -0.0 -0.0 0.0 0.0 0.0 
3224.48 720.423 -820.202 -13.1963 50.3235 6.5016 3.83964 0.463899 1.88076 3.84154 0.343303 1.90646 3.85196 0.0652407 1.93601 3.84693 0.370123 1.90144 -13.8268 16.9875 2.3406 -14.6107 30.9979 7.84394 -0.0 0.0 -0.0 1.92608 9.20374 4.44521 -30.1851 -28.1389 66.7677 0.397904 -11.1508 0.0388426 3.76762 0.117426 -0.466826 -0.590596 1.99935 -3.08193 -0.0 0.0 -0.0 10.7962 9.74735 -21.5867 -22.5245 23.7264 -57.4041 0.952503 25.2595 -0.213434 10.536 -0.250398 1.32069 1.87594 4.41273 -10.8306 0.0 0.0 0.0 26.217 -4.55646 0.324532 -26.7403 0.155054 4.06355 19.2197 28.2629 -2.82157 -0.870403 0.0 0.0 -0.0 0.0 -0.0 3.39256 -29.1471 15.7301 3.17898 0.143904 0.466492 35.6392 -13.0453 4.49878 3.2457 -0.0 -0.0 0.0 0.0 0.0 
3206.42 726.185 -818.705 -13.0398 49.7157 6.70399 3.89487 0.318378 1.64507 3.89635 0.213068 1.66199 3.90172 -0.0270406 1.67537 3.89788 0.237855 1.65862 -14.9234 16.9634 2.97077 -15.8064 30.7095 8.75813 -0.0 0.0 -0.0 1.85323 9.75266 4.35953 -28.9184 -28.1633 65.2131 0.447166 -12.4903 0.0489345 3.88829 0.120678 -0.481897 -0.464558 1.07549 -2.64116 -0.0 0.0 -0.0 10.5753 9.73315 -21.0991 -23.9173 23.453 -57.4606 0.90996 24.264 -0.195614 10.1574 -0.245631 1.27257 1.769 3.13073 -10.6302 0.0 0.0 0.0 25.342 -6.77707 1.00322 -28.3189 0.104776 4.30059 19.4978 28.4712 -2.86326 -0.684553 0.0 0.0 -0.0 0.0 -0.0 3.54264 -28.9785 15.2099 2.93382 0.131885 0.430802 36.7782 -17.5514 4.6724 3.35452 -0.0 -0.0 0.0 0.0 0.0 
3191.16 727.832 -816.46 -12.7236 48.9578 6.50328 3.99319 0.233262 1.41283 3.99429 0.142896 1.42481 3.99721 -0.0601694 1.43069 3.99439 0.166513 1.42224 -15.1545 17.0714 3.03329 -16.0772 30.9077 8.93274 -0.0 0.0 -0.0 2.02723 9.75877 4.66117 -26.9908 -28.2486 63.6684 0.494837 -13.7734 0.0597656 4.06103 0.125278 -0.503483 -0.38615 0.414078 -2.40195 -0.0 0.0 -0.0 10.3535 9.78222 -20.6108 -24.8165 23.0777 -57.4033 0.854469 22.9417 -0.173394 9.88301 -0.241978 1.23771 1.6404 1.91049 -10.2526 0.0 0.0 0.0 24.9493 -9.47559 2.3255 -29.4994 0.0629164 4.47692 19.7363 28.1067 -2.88845 -0.561562 0.0 0.0 -0.0 0.0 -0.0 4.75484 -28.4251 15.1781 2.73355 0.122181 0.40161 37.5912 -20.7272 4.81611 3.32426 -0.0 -0.0 0.0 0.0 0.0 
3174.25 731.614 -812.587 -13.2931 47.7162 6.83501 4.19745 0.170727 1.19426 4.19824 0.0943933 1.2027 4.19972 -0.0725035 1.20422 4.19771 0.118576 1.20056 -15.6567 17.301 3.6553 -16.6352 31.0516 9.75473 -0.0 0.0 -0.0 2.29976 9.46395 5.11403 -24.8343 -28.335 61.8003 0.544247 -15.0886 0.0720802 4.65409 0.140573 -0.577697 -0.32556 -0.214241 -2.26605 -0.0 0.0 -0.0 10.1993 10.3042 -20.2665 -25.982 22.7765 -57.4746 0.807878 21.8111 -0.155656 9.66346 -0.238935 1.20983 1.51231 0.233698 -10.0612 0.0 0.0 0.0 24.5277 -11.1715 3.91411 -28.7745 0.0890511 4.36875 19.8336 28.1402 -2.90222 -0.443462 0.0 0.0 -0.0 0.0 -0.0 5.20405 -27.8696 15.0781 3.93388 0.181872 0.57607 37.9015 -23.3161 4.91239 3.22254 -0.0 -0.0 0.0 0.0 0.0 
